<?xml version="1.0" encoding="utf-8"?>
<!-- Generator: Adobe Illustrator 27.6.1, SVG Export Plug-In . SVG Version: 6.00 Build 0)  -->
<svg version="1.1" id="Capa_1" xmlns="http://www.w3.org/2000/svg" xmlns:xlink="http://www.w3.org/1999/xlink" x="0px" y="0px"
	 viewBox="0 0 495.4 106.5" style="enable-background:new 0 0 495.4 106.5;" xml:space="preserve">
<style type="text/css">
	.st0{fill:#000000;}
</style>
<path class="st0" d="M329.3,0.8h8.7v10.1h-6.3c-5.2,0-8.1,1.7-8.1,7.7v6.6H338v10.2h-14.4v49.4h-13.8V35.4h-11.6V25.2h11.6V18
	C309.9,6.3,318.1,0.8,329.3,0.8z M55,46.8V47v37.8H41.3V73c-3.8,7.8-8.8,13.2-20.2,13.2C9.8,86.1,0.7,78,0.7,66.8
	C0.7,53,14.1,50,25.4,48.9l15.8-1.7v-0.8v-0.2c0-7-4-12.6-12.3-12.6c-7.4,0-11.5,4.4-12.3,9.4H2.7c1.4-11.7,11.6-19.1,26.2-19.1
	C47.2,23.9,55,34.6,55,46.8z M41.2,55.9L30.4,57c-7.5,0.9-15.7,2-15.7,9.7c0,6.7,5.3,10.6,11.6,10.6c9.8,0,14.8-8,14.8-17.9V55.9z
	 M139.1,23.9c-10.6,0-16.4,7.4-18.8,14.7c-2.2-7.6-8.2-14.7-18.5-14.7c-10.1,0-15.5,6.4-18.1,13.6V25.2H70v59.6h13.8V50.2
	c0-11.4,4-16.5,11.8-16.5c7.7,0,11.7,5.1,11.7,16.2v0.2v34.6h13.8V50.2c0-11.4,4-16.5,11.8-16.5c7.7,0,11.7,5.1,11.7,16.2v0.2v34.6
	h13.8V47.5v-0.2C158.6,33.7,152.4,23.9,139.1,23.9z M232.8,54.9c0,18.1-10.4,31.2-25,31.2c-9.1,0-17-5.9-20.4-14v34.4h-13.7V25.2
	h13.7v14c2.8-8,9.6-15.4,20.4-15.4C222.3,23.9,232.8,36.8,232.8,54.9z M218.8,54.9c0-13-5.6-21.3-15.9-21.3
	c-10.2,0-15.9,8.3-15.9,21.3c0,13.2,5.7,21.4,15.9,21.4C213.2,76.4,218.8,68.1,218.8,54.9z M245.2,84.8H259v-84h-13.8V84.8z
	 M274.8,84.8h13.8V25.2h-13.8V84.8z M274.5,16H289V0.8h-14.5V16z M403.6,76.4c-9.9,0-15.8-8.2-15.8-21.4c0-13,5.7-21.3,15.8-21.3
	c8,0,12.5,5.5,14,12.4h14c-2.5-13.3-12.8-22.1-28.1-22.1c-17.9,0-29.8,12.5-29.8,31.1c0,18.6,11.8,31.2,29.8,31.2
	c14.3,0,25.6-7.7,28.6-21.9h-13.9C416.1,72,411.5,76.4,403.6,76.4z M347.6,84.8h13.8V25.2h-13.8V84.8z M347.3,16h14.5V0.8h-14.5V16z
	 M494.5,12.4v0.2v37.8h-13.7V38.6c-3.8,7.8-8.8,13.2-20.2,13.2c-11.3,0-20.3-8.1-20.3-19.3c0-13.8,13.4-16.8,24.7-17.9l15.8-1.7
	v-0.8v-0.2c0-4.8-1.9-9-5.8-11.1h16.8C493.6,4.2,494.5,8.3,494.5,12.4z M480.7,21.6l-10.7,1.1c-7.5,0.9-15.7,2-15.7,9.7
	c0,6.7,5.3,10.6,11.6,10.6c9.8,0,14.8-8,14.8-17.9V21.6z M461.8,0.8h-17c-1.4,2.3-2.3,5-2.6,7.9h13.9C456.6,5.5,458.5,2.5,461.8,0.8
	z M468.4,65.7c-14.6,0-24.8,7.4-26.2,19.1h13.9c0.8-5,4.9-9.4,12.3-9.4c7,0,10.9,4,12,9.4h13.9C492.7,74.3,484.8,65.7,468.4,65.7z"
	/>
</svg>
