<svg xmlns="http://www.w3.org/2000/svg" xmlns:xlink="http://www.w3.org/1999/xlink" width="68.937" height="112.147" viewBox="0 0 68.937 112.147">
  <defs>
    <style>
      .cls-1, .cls-3 {
        fill: none;
      }

      .cls-2 {
        clip-path: url(#clip-path);
      }

      .cls-3 {
        stroke: #1a1a1a;
        stroke-miterlimit: 10;
        stroke-width: 3px;
      }

      .cls-4 {
        fill: #fff;
      }
    </style>
    <clipPath id="clip-path">
      <rect id="Rectángulo_36" data-name="Rectángulo 36" class="cls-1" width="68.937" height="112.147"/>
    </clipPath>
  </defs>
  <g id="Grupo_50" data-name="Grupo 50" transform="translate(0 -0.001)">
    <g id="Grupo_49" data-name="Grupo 49" class="cls-2" transform="translate(0 0.001)">
      <path id="Trazado_110" data-name="Trazado 110" class="cls-3" d="M21.627,153.5v-8.846a9.369,9.369,0,0,0-2.744-6.624l-6.526-6.526a12.242,12.242,0,0,1-3.586-8.657V92.212l53.814,6.845v21.155a13.912,13.912,0,0,1-4.075,9.838l-3.467,3.467a6.924,6.924,0,0,0-2.029,4.9V153.5Z" transform="translate(-4.254 -44.729)"/>
      <path id="Trazado_111" data-name="Trazado 111" class="cls-4" d="M12.055,106.976h0a5.523,5.523,0,0,1-5.507-5.507V83.135a5.507,5.507,0,0,1,11.015,0v18.333a5.523,5.523,0,0,1-5.507,5.507" transform="translate(-3.176 -37.655)"/>
      <path id="Trazado_112" data-name="Trazado 112" class="cls-3" d="M12.055,106.976h0a5.523,5.523,0,0,1-5.507-5.507V83.135a5.507,5.507,0,0,1,11.015,0v18.333A5.523,5.523,0,0,1,12.055,106.976Z" transform="translate(-3.176 -37.655)"/>
      <path id="Trazado_113" data-name="Trazado 113" class="cls-4" d="M33.753,109.565h0a5.833,5.833,0,0,1-5.815-5.816V80.436a5.815,5.815,0,0,1,11.631,0V103.75a5.833,5.833,0,0,1-5.816,5.816" transform="translate(-13.552 -36.196)"/>
      <path id="Trazado_114" data-name="Trazado 114" class="cls-3" d="M33.753,109.565h0a5.833,5.833,0,0,1-5.816-5.816V80.436a5.816,5.816,0,0,1,11.631,0V103.75A5.833,5.833,0,0,1,33.753,109.565Z" transform="translate(-13.551 -36.196)"/>
      <path id="Trazado_115" data-name="Trazado 115" class="cls-3" d="M59.077,53.176h0a6.468,6.468,0,0,1-8.416-3.51L36.583,15.446A6.448,6.448,0,1,1,48.509,10.54L62.587,44.76A6.467,6.467,0,0,1,59.077,53.176Z" transform="translate(-17.511 -3.176)"/>
      <path id="Trazado_116" data-name="Trazado 116" class="cls-4" d="M83.613,59.572h0a6.345,6.345,0,0,1-3.966-8.027L91.715,15.951A6.329,6.329,0,0,1,103.7,20.015L91.633,55.609a6.348,6.348,0,0,1-8.021,3.963" transform="translate(-38.471 -5.654)"/>
      <path id="Trazado_117" data-name="Trazado 117" class="cls-3" d="M83.613,59.572h0a6.345,6.345,0,0,1-3.966-8.027L91.715,15.95A6.329,6.329,0,1,1,103.7,20.015L91.633,55.609A6.348,6.348,0,0,1,83.613,59.572Z" transform="translate(-38.471 -5.654)"/>
      <path id="Trazado_118" data-name="Trazado 118" class="cls-4" d="M83.007,105.238V88.3L51.233,79.62S46.659,95.452,70.1,99.066" transform="translate(-24.676 -38.621)"/>
      <path id="Trazado_119" data-name="Trazado 119" class="cls-3" d="M83.007,105.238V88.3L51.233,79.62S46.659,95.452,70.1,99.066" transform="translate(-24.676 -38.621)"/>
      <path id="Trazado_120" data-name="Trazado 120" class="cls-4" d="M73.442,114.318s-6.115,7.72,0,18.667" transform="translate(-34.306 -55.452)"/>
      <path id="Trazado_121" data-name="Trazado 121" class="cls-3" d="M73.442,114.318s-6.115,7.72,0,18.667" transform="translate(-34.306 -55.452)"/>
    </g>
  </g>
</svg>
