<?xml version="1.0" encoding="UTF-8"?><svg id="Layer_2" xmlns="http://www.w3.org/2000/svg" viewBox="0 0 54.3 62.3"><defs><style>.cls-1{fill:#1a1a1a;}</style></defs><g id="Capa_1"><path class="cls-1" d="m54.3,22.9v38h-13.7v-11.8c-3.8,7.8-8.8,13.2-20.2,13.2-11.3-.1-20.4-8.2-20.4-19.4,0-13.8,13.4-16.8,24.7-17.9l15.8-1.7v-1c0-7-4-12.6-12.3-12.6-7.4,0-11.5,4.4-12.3,9.4H2C3.4,7.4,13.6,0,28.2,0c18.3,0,26.1,10.7,26.1,22.9Zm-13.8,9.1l-10.8,1.1c-7.5.9-15.7,2-15.7,9.7,0,6.7,5.3,10.6,11.6,10.6,9.8,0,14.8-8,14.8-17.9v-3.5h.1Z"/></g></svg>