<svg xmlns="http://www.w3.org/2000/svg" xmlns:xlink="http://www.w3.org/1999/xlink" width="502" height="258.799" viewBox="0 0 502 258.799">
  <defs>
    <style>
      .cls-1 {
        fill: none;
      }

      .cls-2 {
        clip-path: url(#clip-path);
      }

      .cls-3 {
        fill: #1a1a1a;
      }

      .cls-4 {
        clip-path: url(#clip-path-2);
      }
    </style>
    <clipPath id="clip-path">
      <rect id="Rectángulo_34" data-name="Rectángulo 34" class="cls-1" width="502" height="258.799" transform="translate(0 32.429)"/>
    </clipPath>
    <clipPath id="clip-path-2">
      <rect id="Rectángulo_35" data-name="Rectángulo 35" class="cls-1" width="79.114" height="70.418"/>
    </clipPath>
  </defs>
  <g id="Grupo_48" data-name="Grupo 48" transform="translate(0 -32.429)">
    <g id="Grupo_45" data-name="Grupo 45">
      <g id="Grupo_44" data-name="Grupo 44" class="cls-2">
        <path id="Trazado_94" data-name="Trazado 94" class="cls-3" d="M30.321,22.655c18.345,0,28.63,8.617,28.63,23.07,0,14.362-10.285,22.979-28.63,22.979H17.164V93.071H2.526V22.655ZM30.6,56.474c8.617,0,13.249-3.8,13.249-10.749,0-7.041-4.632-10.84-13.249-10.84H17.164V56.474Z" transform="translate(1.09 9.774)"/>
        <rect id="Rectángulo_31" data-name="Rectángulo 31" class="cls-3" width="14.175" height="70.416" transform="translate(68.288 32.429)"/>
        <path id="Trazado_95" data-name="Trazado 95" class="cls-3" d="M140.93,36.7h14.915l-19.828,68.471H121.471l6.67-23.349H116.191L101.367,36.7h14.267l13.251,42.251Z" transform="translate(43.732 15.834)"/>
        <path id="Trazado_96" data-name="Trazado 96" class="cls-3" d="M0,123.613c0-22.33,14.825-36.32,34.469-36.32,16.676,0,29.463,9.357,33.169,25.109H52.35c-2.687-7.6-8.062-13.527-17.881-13.527-11.675,0-19.366,9.729-19.366,24.738,0,15.1,7.969,24.738,19.366,24.738,9.266,0,15.472-4.91,18.345-13.712H68.1c-4.632,17.418-17.326,25.293-33.726,25.293C14.918,159.932,0,146.034,0,123.613" transform="translate(0 37.661)"/>
        <path id="Trazado_97" data-name="Trazado 97" class="cls-3" d="M51.654,123.613c0-22.144,14.455-36.32,35.207-36.32s35.21,14.175,35.21,36.32-14.455,36.32-35.21,36.32-35.207-14.175-35.207-36.32m55.315,0c0-15.009-7.967-24.738-20.107-24.738s-20.1,9.729-20.1,24.738,7.969,24.738,20.1,24.738,20.107-9.728,20.107-24.738" transform="translate(22.285 37.661)"/>
        <path id="Trazado_98" data-name="Trazado 98" class="cls-3" d="M160.065,88.069h14.546v70.416H146.352L123.1,90.48v68.006H108.551V88.069H136.9l23.163,68.009Z" transform="translate(46.832 37.995)"/>
        <path id="Trazado_99" data-name="Trazado 99" class="cls-3" d="M216.444,88.069h14.548v70.416H202.732L179.476,90.48v68.006H164.928V88.069H193.28l23.163,68.009Z" transform="translate(71.154 37.995)"/>
        <path id="Trazado_100" data-name="Trazado 100" class="cls-3" d="M235.945,146.256H270.6v12.23H221.306V88.07h48.46V100.3h-33.82v15.936h33.172v12.23H235.945Z" transform="translate(95.478 37.996)"/>
        <path id="Trazado_101" data-name="Trazado 101" class="cls-3" d="M261.051,123.613c0-22.33,14.822-36.32,34.466-36.32,16.678,0,29.465,9.357,33.17,25.109H313.4c-2.687-7.6-8.06-13.527-17.881-13.527-11.673,0-19.363,9.729-19.363,24.738,0,15.1,7.967,24.738,19.363,24.738,9.266,0,15.475-4.91,18.347-13.712H329.15c-4.632,17.418-17.325,25.293-33.724,25.293-19.457,0-34.374-13.9-34.374-36.32" transform="translate(112.624 37.661)"/>
        <path id="Trazado_102" data-name="Trazado 102" class="cls-3" d="M368.292,88.069V100.3H346.427v58.186H331.786V100.3H309.921V88.069Z" transform="translate(133.708 37.995)"/>
        <rect id="Rectángulo_32" data-name="Rectángulo 32" class="cls-3" width="14.639" height="70.416" transform="translate(3.614 219.7)"/>
        <path id="Trazado_103" data-name="Trazado 103" class="cls-3" d="M74.494,153.483H89.042V223.9H60.783L37.526,155.894V223.9H22.979V153.483H51.331l23.163,68.009Z" transform="translate(9.914 66.217)"/>
        <path id="Trazado_104" data-name="Trazado 104" class="cls-3" d="M76.186,202.554H91.474c1.021,7.5,7.134,11.211,14.825,11.211,9.82,0,15.472-3.613,15.472-9.08,0-5.56-4.447-7.32-13.991-9.45L97.775,193.01c-11.768-2.5-19.55-8.431-19.55-19.549,0-12.23,11.859-20.754,27.24-20.754,17.327,0,27.054,8.153,29.092,19.92H119.269c-1.852-5.836-6.855-8.338-13.8-8.338-7.041,0-12.787,2.964-12.787,7.876,0,5,3.8,6.67,13.528,8.893l10.007,2.224c13.249,2.871,20.1,8.709,20.1,19.92,0,13.9-12.229,22.144-30.575,22.144-16.029,0-27.7-8.431-29.556-22.793" transform="translate(32.869 65.882)"/>
        <path id="Trazado_105" data-name="Trazado 105" class="cls-3" d="M153.434,153.483c18.345,0,28.63,8.617,28.63,23.07,0,14.362-10.285,22.979-28.63,22.979H140.277V223.9H125.639V153.483Zm.278,33.819c8.617,0,13.249-3.8,13.249-10.749,0-7.041-4.632-10.84-13.249-10.84H140.277V187.3Z" transform="translate(54.204 66.217)"/>
        <rect id="Rectángulo_33" data-name="Rectángulo 33" class="cls-3" width="14.641" height="70.416" transform="translate(245.903 219.7)"/>
        <path id="Trazado_106" data-name="Trazado 106" class="cls-3" d="M235.051,223.9l-15.288-26.221h-12.88V223.9H192.244V153.483h27.98c16.957,0,27.519,8.71,27.519,22.144,0,9.081-4.817,16.121-13.434,19.642l17.418,28.63Zm-28.168-58.186v19.735H220.6c7.6,0,12.137-3.706,12.137-9.821,0-6.207-4.539-9.914-12.137-9.914Z" transform="translate(82.939 66.217)"/>
        <path id="Trazado_107" data-name="Trazado 107" class="cls-3" d="M254.652,211.67h34.653V223.9H240.013V153.484h48.458v12.23H254.652V181.65h33.17v12.23h-33.17Z" transform="translate(103.548 66.217)"/>
      </g>
    </g>
    <g id="Grupo_47" data-name="Grupo 47" transform="translate(82.463 32.429)">
      <g id="Grupo_46" data-name="Grupo 46" class="cls-4">
        <path id="Trazado_108" data-name="Trazado 108" class="cls-3" d="M112.484,63.6V95.284H98.493V85.835C95.62,91.858,91.08,96.4,81.723,96.4c-9.729,0-17.511-6.673-17.511-16.4,0-11.489,10.932-14.36,20.846-15.286l13.249-1.3V62.58c0-5.1-2.963-9.081-8.986-9.081-5.56,0-8.523,3.242-9.08,6.762H65.971c1.3-10.285,10.562-16.4,23.349-16.4,15.657,0,23.163,8.434,23.163,19.735M98.307,73.881V71.844l-8.06.833C84.5,73.325,78.665,74.345,78.665,80c0,4.911,3.8,7.876,8.617,7.876,7.227,0,11.025-6.114,11.025-13.991" transform="translate(-54.76 -13.506)"/>
        <path id="Trazado_109" data-name="Trazado 109" class="cls-3" d="M112.484,19.735V51.423H98.493v-9.45C95.62,48,91.08,52.535,81.723,52.535c-9.729,0-17.511-6.672-17.511-16.4,0-11.489,10.932-14.362,20.846-15.288l13.249-1.3v-.833c0-5.1-2.963-9.081-8.986-9.081-5.56,0-8.523,3.242-9.08,6.763H65.971C67.268,6.115,76.534,0,89.321,0c15.657,0,23.163,8.433,23.163,19.735M98.307,30.02V27.982l-8.06.833c-5.746.648-11.582,1.668-11.582,7.32,0,4.91,3.8,7.876,8.617,7.876,7.227,0,11.025-6.115,11.025-13.991" transform="translate(-54.76 -32.429)"/>
      </g>
    </g>
  </g>
</svg>
